<svg
   xmlns="http://www.w3.org/2000/svg"
   viewBox="0 0 50 50"
   height="188.97638"
   width="188.97638">
  <g
     transform="translate(0,-247)"
     id="layer1">
    <path
       id="path1234"
       d="m 25.112001,251.16875 c -3.102162,0.78204 -6.166544,2.06308 -8.742771,3.62548 -2.576229,1.56239 -6.475193,1.53086 -8.742776,1.27381 l 6.812973,7.08289 -1.538382,1.55032 -7.3253628,-7.06544 c 0.046275,1.99238 0.029082,5.17199 -1.0793547,7.44691 -1.1084367,2.27492 -3.92116967,4.96675 -3.99361227,8.42676 -0.072441,3.46003 2.14594917,6.43834 3.66980597,8.72073 1.5238568,2.28238 1.8336945,5.16057 1.6190319,7.15295 l 7.2039859,-6.58947 1.470773,1.65178 -6.839858,6.50545 c 3.497043,0.28627 6.55654,1.49929 9.72447,2.67767 2.439604,0.90744 4.943513,1.79435 7.761077,2.22161 l 15.434772,-8.72072 c 3.668659,-2.99253 6.333614,-7.4169 2.050774,-21.7528 -0.740054,-3.00489 1.285767,-5.42188 2.590453,-8.13281 l -5.936453,-5.87914 c -1.151531,2.12281 -3.277482,3.36105 -6.799933,3.72344 -3.972683,0.55885 -5.307722,-1.05604 -7.339613,-3.91942 z"
       style="fill:none;stroke-width:1.5;stroke-linecap:butt;stroke-linejoin:miter;stroke-opacity:1" />
    <path
       id="path1317"
       d="m 21.959432,269.0638 0.09675,-6.49847 5.707302,-0.0585 0.06451,6.61457 6.44893,-3.3653 2.998751,4.58376 -6.352194,3.42335 6.287705,3.22022 -2.934262,4.6128 -6.352194,-3.33625 0.03225,6.70157 -5.997501,0.0287 8e-6,-6.73062 -6.31995,3.33628 -2.998751,-4.61281 6.319951,-3.22027 -6.287708,-3.42332 2.902017,-4.55478 z"
       style="fill:none;stroke-width:1.5;stroke-linecap:butt;stroke-linejoin:miter;stroke-miterlimit:4;stroke-dasharray:none;stroke-opacity:1" />
  </g>
</svg>
